<svg version="1" xmlns="http://www.w3.org/2000/svg" width="918.667" height="918.667" viewBox="0 0 689.000000 689.000000"><path d="M307 1c-3 .4-8 1.1-11 1.4-20.5 2.5-55.4 11.8-78.3 21-13.8 5.6-37 16.6-37.5 17.8-.2.5-.8.8-1.4.8-2.8 0-45.2 28.1-49.8 33-.3.3-3.4 3-7 5.9-8 6.7-33.1 31.8-38.5 38.5-2.2 2.8-4.7 5.7-5.5 6.5-2.1 2.3-16.9 22.5-21.3 29.3-14.2 21.6-29.3 53-38 78.8-2.5 7.3-8.1 27-9.1 32-.3 1.4-.8 3.6-1.1 5-.5 2.6-1 4.9-2.5 14-1.4 8.4-1.9 12.1-2.5 17-.3 2.5-.8 6.3-1.1 8.5-1 7.2-1.2 50.8-.3 60 1.3 14.2 2.4 22.5 3.6 29 .4 2.2.8 4.4.9 5 .2 2.5 1.7 9.5 3.1 15 .8 3.3 1.6 6.8 1.8 7.7 1 5.1 7.3 25.8 9.4 31.3.5 1.1 2.6 6.5 4.7 12 4.1 10.6 19.4 41.7 24.6 50 9.1 14.5 18.1 27.2 26.7 38 12.9 16.1 38.8 42 52.9 53 .7.5 1.8 1.5 2.5 2 19.3 16.1 54.1 36.4 82.2 47.8 16.2 6.5 37.9 13.7 46.5 15.3 1.4.3 4.3 1 6.5 1.6 2.2.5 4.9 1.2 6 1.4 1.1.2 4.3.8 7 1.4 6.7 1.3 24 3.8 32.8 4.7 14.6 1.5 57.6.8 72.7-1.2 6.8-.9 12-1.7 17-2.6 3-.6 6.9-1.3 8.5-1.5 3.6-.7 23.6-5.6 32-7.9 12.8-3.6 36.3-12.9 52.5-20.8 14.8-7.3 42.1-23.6 50.1-30.1 1.4-1.2 3.8-3 5.3-4.1 3.1-2.2 8.2-6.3 16.6-13.3 6.9-5.8 33.3-32.3 38-38.1 1.9-2.4 4-4.9 4.5-5.5 3.7-3.9 20.9-27.8 25-34.8 15.5-26 24-43.7 32.6-67.5 4-11.3 9.6-31 12-42.3 1.1-5.2 2.2-10.2 2.4-11 .2-1.3 1.2-7.9 3-20.5 2.6-18.4 2.7-68.4.1-82.2-.2-1-.7-4.3-1-7.4-.4-3.1-.9-6.7-1.1-8-.3-1.3-.9-4.9-1.5-7.9-2.3-11.9-8.4-36.2-9.6-38.1-.3-.5-.7-1.7-.9-2.6-.5-2.6-6.3-18.9-9.2-25.8-9-21.6-20.7-43.7-31.9-60.1-5-7.4-14.2-20.2-15.9-22-.5-.7-2.6-3.1-4.5-5.5-17.2-21.4-46.9-48.9-70.5-65-34.4-23.6-69-39.3-111-50.4-7.6-2-12.6-3.1-28.5-6-.8-.1-4-.6-7-1s-6.6-1-8-1.3c-4.4-.8-72.3-1-78-.2z"/></svg>